<?xml version="1.0" encoding="UTF-8"?>
<svg width="752pt" height="752pt" version="1.1" viewBox="0 0 752 752" xmlns="http://www.w3.org/2000/svg">
 <path d="m459.35 461.72h-1.8945c-28.887 0-52.094-22.258-53.043-51.148-0.94531-29.363 21.785-53.988 51.148-54.934 29.363-0.94531 53.988 21.785 54.934 51.148 0.94922 29.359-22.258 53.988-51.145 54.934zm22.73-108.92h0.47266c10.891-0.47266 18.941-9.4727 18.469-19.891-0.47266-10.418-8.9961-18.469-19.418-18.469h-0.47266c-5.2109 0-9.9453 2.3672-13.262 6.1562s-5.2109 8.5234-5.2109 13.734c0.48047 10.418 9.0039 18.469 19.422 18.469zm-224.48 130.23c-3.3164 7.5781-10.891 12.785-19.418 12.785-2.8398 0-5.6836-0.47266-8.5234-1.8945-5.2109-2.3672-8.9961-6.6289-11.367-11.84-1.8945-5.2109-1.8945-10.891 0.47266-16.102 3.3164-7.5781 10.891-12.785 19.418-12.785 2.8398 0 5.6836 0.47266 8.5234 1.8945 5.2109 2.3672 8.9961 6.6289 11.367 11.84 1.8945 5.207 1.8945 10.891-0.47266 16.102zm-8.5234-12.789c-0.94531-2.8398-3.3164-5.2109-6.1562-6.6289-1.4219-0.47266-2.8398-0.94531-4.7344-0.94531-4.7344 0-8.9961 2.8398-10.891 7.1055-1.4219 2.8398-1.4219 6.1562 0 8.9961 1.4219 2.8398 3.3164 5.2109 6.1562 6.6289 5.6836 2.3672 12.785-0.47266 15.156-6.1562 1.8906-2.8398 1.8906-6.1562 0.46875-9zm284.15-143.49h-0.94531c-17.051 0.47266-30.781 15.156-30.309 32.203 0.47266 17.051 14.207 30.309 31.258 30.309h0.94531c8.5234-0.47266 16.102-3.7891 21.785-9.9453s8.5234-14.207 8.5234-22.258c-0.94922-17.051-14.211-30.309-31.258-30.309zm-263.79-98.504c-0.94531-5.6836 0.47266-11.367 3.7891-16.102s8.0508-7.5781 13.734-8.9961c11.84-1.8945 22.73 6.1562 24.625 17.523 1.8945 11.84-5.6836 22.73-17.523 24.625-1.4219 0-2.3672 0.47266-3.7891 0.47266-10.418 0.46875-19.414-7.1055-20.836-17.523zm32.676-5.6836c0-0.94531-0.47266-1.8945-0.94531-2.8398l-15.629 15.629c1.8945 0.94531 4.2617 1.4219 6.6289 0.94531 6.6328-0.94922 11.367-7.1055 9.9453-13.734zm-23.676 4.2617c0.47266 1.4219 0.94531 2.8398 1.4219 4.2617l16.574-16.574c-1.8945-0.94531-3.7891-1.8945-6.1562-1.8945h-1.8945c-3.3164 0.47266-5.6836 2.3672-7.5781 4.7344-1.8945 2.8398-2.8438 6.1562-2.3672 9.4727zm-55.883 57.301c-3.3164-18.941 9.4727-37.414 28.414-40.254 1.8945-0.47266 4.2617-0.47266 6.1562-0.47266 17.051 0 31.73 12.312 34.57 28.887 1.4219 8.9961-0.47266 18.469-5.6836 26.047-5.2109 7.5781-13.262 12.785-22.73 14.207-1.8945 0.47266-3.7891 0.47266-6.1562 0.47266-17.051 0.47656-31.73-11.836-34.57-28.887zm59.668-10.418c0-0.47266-0.47266-0.94531-0.47266-1.4219l-30.781 30.781c1.8945 0.47266 3.7891 0.94531 5.6836 0.94531 1.4219 0 2.8398 0 4.2617-0.47266 6.6289-0.94531 12.785-4.7344 16.574-10.418 4.2617-5.6797 6.1562-12.309 4.7344-19.414zm-13.258-17.996-34.098 34.098c2.3672 4.2617 5.6836 8.0508 9.4727 10.418l35.047-35.047c-2.8438-4.2578-6.1602-7.5742-10.422-9.4688zm-36.941 26.52 29.363-29.363c-1.4219 0-2.8398-0.47266-4.2617-0.47266-1.4219 0-2.8398 0-4.2617 0.47266-13.734 2.3711-23.207 15.633-20.84 29.363zm87.613 204.59c4.7344 7.5781 5.6836 16.574 3.7891 25.102-3.7891 14.68-17.051 25.102-32.203 25.102-2.8398 0-5.2109-0.47266-8.0508-0.94531-17.523-4.2617-28.414-22.258-24.152-40.254 3.7891-14.68 17.051-25.102 32.203-25.102 2.8398 0 5.2109 0.47266 8.0508 0.94531 8.5234 1.8906 15.629 7.5742 20.363 15.152zm-8.0508 4.7344c-3.3164-5.2109-8.5234-8.9961-14.68-10.891-1.8945-0.47656-3.7891-0.47656-5.6836-0.47656-10.891 0-20.363 7.5781-22.73 17.996-3.3164 12.785 4.7344 25.574 17.523 28.414 1.8945 0.47266 3.7891 0.47266 5.6836 0.47266 10.891 0 20.363-7.5781 22.73-17.996 1.418-5.6797 0.47266-12.309-2.8438-17.52zm189.91-35.992h-0.94531c-13.262 0.47266-23.68 11.367-23.207 24.625 0.47266 12.785 10.891 23.207 23.68 23.207h0.94531c13.262-0.47266 23.68-11.367 23.207-24.625 0-13.262-10.418-23.207-23.68-23.207zm-129.76-2.3672c2.3672 6.6289 2.3672 13.734-0.47266 19.891-4.2617 9.4727-13.734 15.629-24.152 15.629-3.7891 0-7.1055-0.94531-10.418-2.3672-6.6289-2.8398-11.367-8.0508-13.734-14.68-2.3672-6.6289-2.3672-13.734 0.47266-19.891 4.2617-9.4727 13.734-15.629 24.152-15.629 3.7891 0 7.1055 0.94531 10.418 2.3672 6.6328 3.3125 11.367 8.5234 13.734 14.68zm-8.5234 3.7891c-1.4219-4.2617-4.7344-7.5781-8.9961-9.4727-2.3672-0.94531-4.2617-1.4219-6.6289-1.4219-6.6289 0-12.785 3.7891-15.156 9.9453-1.8945 4.2617-1.8945 8.5234-0.47266 12.785 1.4219 4.2617 4.7344 7.5781 8.9961 9.4727 2.3672 0.94531 4.2617 1.4219 6.6289 1.4219 6.6289 0 12.785-3.7891 15.156-9.9453 1.8945-4.2617 1.8945-8.5234 0.47266-12.785zm-78.613-95.191c6.6289 0 13.262 1.4219 19.418 4.2617 11.84 5.2109 21.312 14.68 26.047 26.992s4.2617 25.574-0.94531 37.414c-7.5781 17.523-25.102 29.363-44.516 29.363-6.6289 0-13.262-1.4219-19.418-4.2617-24.625-10.891-35.992-39.781-25.102-64.406 7.5742-17.996 25.098-29.363 44.516-29.363zm15.625 12.789c-4.7344-2.3711-9.9414-3.3164-15.625-3.3164-15.629 0-29.836 8.9961-35.992 23.68-8.5234 19.891 0.47266 43.098 20.363 51.621 5.2109 2.3672 10.418 3.3164 15.629 3.3164 15.629 0 29.836-8.9961 35.992-23.68 4.2617-9.4727 4.2617-20.363 0.47266-29.836-3.7891-9.4727-10.895-17.996-20.84-21.785zm62.516-36.469c-33.152 0-60.145-26.992-60.145-60.145s26.992-60.145 60.145-60.145c33.152 0 60.145 26.992 60.145 60.145s-26.996 60.145-60.145 60.145zm0.47266-9.4688 50.199-50.199v-0.47266c0-5.2109-0.94531-10.418-2.3672-15.629l-63.934 63.934c4.7344 1.8906 9.9453 2.3672 16.102 2.3672-0.47266 0-0.47266 0 0 0zm36.465-84.773-71.512 71.512c3.3164 3.3164 7.5781 6.1562 11.84 8.0508l67.723-67.723c-1.8945-4.2617-4.7344-8.5234-8.0508-11.84zm-5.207-4.7344c-3.3164-2.8398-6.6289-4.7344-10.418-6.6289l-67.25 66.773c1.8945 3.7891 3.7891 7.5781 6.6289 10.418zm-31.73-11.367h-2.8398l-47.836 47.832v2.8398c0 4.7344 0.94531 9.4727 1.8945 13.734l62.512-62.512c-4.2617-1.418-8.9961-1.8945-13.73-1.8945zm-48.305 35.52 33.625-33.625c-16.105 5.2109-28.891 17.523-33.625 33.625zm97.082 26.996-37.414 37.414c18.945-4.7383 33.152-19.418 37.414-37.414zm173.8 85.715c0 115.55-93.77 209.32-209.32 209.32-115.55 0-209.32-93.77-209.32-209.32 0-115.55 93.77-209.32 209.32-209.32 115.55 0 209.32 93.77 209.32 209.32zm-9.4727 0c0-110.34-89.504-199.85-199.85-199.85-110.34 0-199.85 89.508-199.85 199.85 0 110.35 89.508 199.85 199.85 199.85 110.35 0 199.85-89.504 199.85-199.85z"/>
</svg>
